<?xml version="1.0" standalone="no"?>
<!DOCTYPE svg PUBLIC "-//W3C//DTD SVG 20010904//EN"
 "http://www.w3.org/TR/2001/REC-SVG-20010904/DTD/svg10.dtd">
<svg version="1.0" xmlns="http://www.w3.org/2000/svg"
 width="300.000000pt" height="300.000000pt" viewBox="0 0 300.000000 300.000000"
 preserveAspectRatio="xMidYMid meet">
<metadata>
Created by potrace 1.10, written by Peter Selinger 2001-2011
</metadata>
<g transform="translate(0.000000,300.000000) scale(0.100000,-0.100000)"
fill="#000000" stroke="none">
<path d="M830 2854 c-68 -19 -119 -69 -145 -139 -10 -27 -37 -88 -61 -135 -23
-47 -48 -105 -54 -130 -7 -25 -27 -96 -46 -158 -19 -62 -34 -135 -34 -162 0
-42 4 -51 35 -79 65 -57 199 -109 338 -131 71 -12 80 -16 117 -56 53 -58 52
-74 -3 -74 -103 0 -205 -72 -256 -179 -25 -54 -26 -63 -25 -221 1 -146 4 -176
28 -265 15 -55 33 -105 41 -111 16 -12 21 -64 6 -64 -5 0 -19 -34 -32 -75 -29
-100 -85 -183 -162 -240 -78 -59 -114 -78 -207 -105 -41 -13 -91 -31 -111 -41
-38 -19 -94 -77 -84 -87 3 -4 38 10 78 30 40 21 104 47 144 59 202 60 361 223
394 404 13 72 8 129 -28 272 -34 138 -38 305 -10 398 34 110 139 185 259 185
31 0 40 5 47 23 16 40 0 77 -53 128 -35 34 -62 51 -86 54 -194 29 -381 108
-388 166 -5 44 93 362 146 471 28 57 53 118 57 136 9 43 28 41 23 -3 -3 -23
-1 -32 6 -25 6 6 14 10 18 10 16 0 7 -23 -22 -57 -16 -18 -30 -41 -30 -50 0
-12 9 -7 30 17 26 32 29 33 30 13 0 -12 -24 -54 -53 -93 l-54 -71 -6 -146 c-4
-97 -3 -151 4 -159 22 -27 113 -48 206 -49 50 0 94 3 98 7 4 3 2 15 -4 26 -8
14 -7 24 4 38 8 11 14 33 14 49 0 29 0 29 -14 -9 -8 -22 -25 -50 -38 -63 -23
-24 -25 -24 -63 -8 -40 16 -84 52 -84 67 0 5 -16 24 -35 44 -41 41 -46 84 -16
151 29 63 97 95 155 74 19 -8 37 -7 68 4 46 15 68 7 68 -25 0 -10 7 -23 15
-30 8 -7 15 -24 15 -37 0 -15 10 -33 25 -45 34 -27 34 -79 1 -106 -19 -14 -22
-22 -13 -31 6 -6 14 -11 18 -11 13 0 159 312 152 324 -7 12 -158 202 -178 224
-9 10 -21 9 -60 -3 -55 -16 -165 -20 -165 -6 0 5 26 15 58 22 54 11 56 12 27
20 -18 5 -46 4 -70 -2 -22 -6 -50 -11 -62 -11 -13 0 -20 -4 -17 -9 3 -5 11 -9
17 -9 7 0 17 -8 24 -18 9 -15 7 -21 -7 -30 -16 -9 -21 -6 -35 24 -22 46 -12
57 71 78 49 12 89 15 157 11 l92 -6 65 -67 c36 -37 95 -93 132 -125 38 -32 71
-69 74 -83 8 -29 -41 -177 -92 -277 -19 -38 -34 -72 -34 -75 0 -4 13 -13 29
-20 37 -16 58 -64 43 -97 -8 -17 -8 -32 1 -54 10 -27 4 -53 -52 -233 -79 -253
-89 -292 -98 -397 l-6 -85 -67 71 c-60 62 -110 144 -134 217 -4 10 -9 17 -11
14 -8 -7 25 -108 52 -161 29 -59 96 -133 137 -154 17 -9 47 -31 66 -50 116
-114 308 -165 611 -163 177 2 199 -3 199 -41 0 -10 -5 -21 -10 -24 -6 -4 -24
-30 -40 -58 -40 -70 -39 -120 5 -253 39 -118 44 -179 16 -239 -23 -52 -93
-115 -127 -115 -36 0 -131 29 -173 53 -80 44 -109 56 -167 67 -50 10 -66 9
-97 -4 -33 -13 -37 -19 -37 -50 l0 -35 25 24 c39 39 81 33 209 -30 65 -33 136
-60 173 -67 58 -11 64 -10 118 16 44 22 64 40 93 84 34 50 37 62 40 136 3 71
0 91 -28 166 -20 53 -33 105 -34 140 -1 49 3 61 37 108 44 62 49 107 15 139
-21 19 -38 21 -238 26 -275 6 -393 33 -516 117 -24 17 -48 29 -52 26 -14 -9
-52 24 -52 44 0 10 6 23 14 27 8 5 21 45 30 99 8 50 45 185 81 301 62 201 65
215 65 312 0 101 0 103 -31 133 l-30 31 25 52 c42 90 86 225 86 266 0 35 -7
46 -58 97 -33 31 -99 96 -148 144 l-90 88 -119 5 c-91 3 -134 1 -175 -11z
m303 -236 l78 -100 -33 -66 c-18 -37 -34 -69 -35 -71 -7 -11 -33 25 -33 44 0
12 -7 28 -15 35 -8 7 -15 20 -15 29 0 10 -11 28 -24 40 -20 19 -31 22 -58 16
-18 -4 -61 -6 -95 -5 -65 1 -133 -21 -133 -44 0 -14 -47 -66 -60 -66 -6 0 -10
2 -10 5 0 12 46 75 55 75 6 0 25 20 43 45 30 39 33 49 30 97 l-4 53 81 -3 c44
-2 91 1 105 7 14 5 30 10 35 10 6 0 45 -45 88 -101z m-360 -431 l18 -28 -37
16 c-20 8 -38 15 -40 15 -2 0 -4 16 -4 36 l0 37 23 -24 c12 -14 30 -37 40 -52z"/>
<path d="M2933 2152 c-40 -64 -206 -73 -411 -23 -182 45 -254 40 -339 -25 -37
-28 -100 -114 -83 -114 6 0 32 20 59 45 86 81 176 103 287 71 27 -8 90 -22
139 -31 153 -28 143 -25 120 -38 -13 -8 -84 -12 -210 -13 -223 -1 -300 -14
-469 -78 -38 -14 -71 -24 -73 -22 -12 12 87 136 108 136 4 0 9 -12 11 -27 3
-28 4 -27 25 13 12 22 40 57 64 77 48 43 36 47 -48 15 -79 -29 -158 -109 -208
-211 -21 -42 -36 -79 -34 -81 2 -3 54 17 114 44 178 77 246 91 500 100 202 7
226 10 291 34 39 14 78 26 87 26 8 0 36 19 62 43 34 31 45 47 40 60 -9 22 -17
22 -32 -1z"/>
<path d="M1927 2070 c-38 -33 -82 -111 -74 -132 2 -7 14 7 26 32 13 25 39 62
59 82 45 47 36 60 -11 18z"/>
<path d="M1807 2037 c-32 -18 -74 -45 -93 -61 -46 -37 -108 -132 -125 -193
l-13 -48 -4 43 c-2 24 4 64 12 90 22 62 13 65 -18 5 -35 -70 -80 -263 -61
-263 4 0 26 17 50 38 24 21 87 68 142 104 l99 67 22 94 c13 51 30 106 38 122
8 15 13 29 11 31 -1 2 -29 -11 -60 -29z m-22 -99 c-17 -76 -35 -103 -98 -146
-34 -23 -63 -38 -65 -33 -6 18 50 114 95 162 55 59 78 64 68 17z"/>
<path d="M2800 2000 c-53 -27 -140 -40 -261 -40 -131 0 -294 -16 -374 -36 -95
-25 -292 -107 -388 -162 -131 -76 -265 -176 -417 -311 -74 -67 -138 -121 -142
-121 -5 0 -8 -9 -8 -20 0 -11 5 -20 11 -20 6 0 72 58 145 129 193 187 361 308
547 396 137 66 216 59 372 -31 133 -76 171 -94 208 -94 66 0 90 26 45 47 -13
6 -62 43 -110 82 -49 39 -88 65 -88 58 0 -17 39 -70 71 -96 47 -39 -4 -21
-113 40 -60 34 -106 65 -101 70 4 4 38 11 75 15 62 6 71 5 106 -19 52 -34 218
-117 235 -117 45 0 253 204 240 236 -6 17 -9 17 -53 -6z m-60 -69 c0 -15 -101
-101 -125 -107 -24 -6 -195 70 -195 86 0 4 62 12 138 17 75 5 147 10 160 11
12 1 22 -2 22 -7z"/>
<path d="M2073 1810 c15 -12 27 -28 27 -36 0 -15 -16 -17 -127 -14 -39 1 -82
-2 -95 -6 -19 -6 -14 -9 30 -20 55 -14 229 -97 290 -139 32 -22 62 -24 62 -5
0 15 72 41 108 40 58 -3 58 -2 21 36 -59 62 -218 145 -304 159 l-40 6 28 -21z
m167 -87 c39 -20 70 -41 70 -48 0 -7 -18 -20 -41 -30 l-40 -19 -72 39 c-40 21
-74 40 -77 42 -9 8 54 53 73 53 10 0 49 -16 87 -37z"/>
<path d="M1453 1782 c-44 -43 -74 -102 -93 -182 -7 -30 -19 -69 -27 -87 -26
-65 -16 -70 38 -18 71 70 87 101 100 190 6 42 15 89 20 103 14 38 6 36 -38 -6z"/>
<path d="M1800 1691 c0 -5 13 -12 29 -16 28 -6 59 -31 50 -39 -2 -3 -22 0 -44
6 -47 13 -124 4 -151 -17 -17 -13 -16 -14 22 -15 53 0 129 -23 237 -71 100
-45 108 -46 124 -20 7 11 29 22 52 26 23 4 41 11 41 15 0 15 -91 73 -170 107
-56 24 -90 33 -132 33 -32 0 -58 -4 -58 -9z m206 -72 c62 -30 73 -46 39 -61
-23 -10 -34 -8 -91 20 -59 29 -64 34 -53 53 12 24 33 21 105 -12z"/>
<path d="M1657 1559 c-52 -12 -137 -50 -137 -60 0 -5 19 -9 43 -9 24 0 52 -7
63 -15 10 -8 17 -15 14 -15 -3 -1 -33 -3 -66 -4 -43 -2 -80 -12 -120 -32 l-59
-29 53 -3 c28 -2 52 -6 52 -10 0 -5 -19 -13 -42 -19 -54 -15 -155 -78 -139
-87 6 -4 39 6 74 23 77 38 192 61 297 61 79 0 82 1 116 34 19 19 48 39 64 46
17 7 30 17 30 22 0 5 -22 19 -50 31 -55 23 -67 42 -20 33 17 -3 44 -9 61 -12
56 -11 22 14 -47 36 -70 21 -124 24 -187 9z m137 -64 l27 -35 -28 -25 c-15
-14 -37 -27 -48 -29 -40 -10 -215 -13 -215 -5 0 5 8 10 18 10 85 6 114 25 110
73 -2 24 1 31 22 37 59 17 87 10 114 -26z"/>
<path d="M876 1190 c28 -259 90 -442 199 -595 82 -115 171 -179 275 -200 32
-7 29 -3 -35 42 -82 58 -186 166 -245 254 -84 123 -162 325 -176 458 -4 31
-10 63 -15 71 -4 8 -6 -5 -3 -30z"/>
<path d="M695 969 c-27 -22 -102 -72 -165 -111 -150 -93 -146 -89 -125 -122
32 -49 47 -49 101 -3 92 79 254 246 254 261 0 23 -9 19 -65 -25z"/>
<path d="M850 955 c0 -5 7 -32 16 -60 43 -142 74 -452 56 -572 -5 -35 -5 -63
-2 -63 14 0 40 130 40 202 0 95 -22 226 -60 362 -28 101 -49 155 -50 131z"/>
<path d="M348 749 c-25 -26 -23 -36 2 -14 14 12 20 14 20 5 0 -7 -8 -19 -17
-26 -17 -12 -17 -14 6 -38 20 -21 26 -23 45 -13 11 7 23 13 25 14 2 1 -7 15
-20 31 -13 16 -28 36 -34 44 -9 13 -12 13 -27 -3z"/>
<path d="M796 674 c-15 -32 -61 -109 -102 -172 -73 -109 -121 -207 -150 -301
-25 -82 -14 -88 20 -11 18 42 63 124 100 183 37 59 82 137 100 174 33 67 70
173 62 180 -2 3 -16 -22 -30 -53z"/>
<path d="M259 681 c-24 -21 -51 -51 -59 -66 -8 -14 -36 -49 -63 -76 -47 -48
-47 -49 -20 -47 15 1 46 16 68 33 22 17 59 37 83 44 24 7 49 22 58 36 9 14 22
25 30 25 9 0 6 11 -11 36 -14 20 -25 41 -25 45 0 17 -18 8 -61 -30z m1 -41
c-29 -28 -55 -49 -58 -46 -3 3 18 29 47 57 28 29 54 50 57 47 3 -3 -18 -29
-46 -58z"/>
</g>
</svg>
